<?xml version="1.0" encoding="UTF-8" standalone="no"?>
<svg width="266px" height="113px" viewBox="0 0 266 113" version="1.1" xmlns="http://www.w3.org/2000/svg" xmlns:xlink="http://www.w3.org/1999/xlink" xmlns:sketch="http://www.bohemiancoding.com/sketch/ns">
    <!-- Generator: Sketch 3.3.1 (12005) - http://www.bohemiancoding.com/sketch -->
    <title>Group</title>
    <desc>Created with Sketch.</desc>
    <defs></defs>
    <g id="Page-1" stroke="none" stroke-width="1" fill="none" fill-rule="evenodd" sketch:type="MSPage">
        <g id="Group" sketch:type="MSLayerGroup">
            <g transform="translate(0.000000, 19.000000)" id="Shape" fill="#07456B" sketch:type="MSShapeGroup">
                <path d="M0.8,44.6 L2.7,44.1 C5,43.6 5.7,43.3 5.7,38 L5.7,8.2 C5.7,3.6 5,3.4 2.7,2.8 L0.8,2.3 L0.8,0.1 L23,0.1 L31,24.4 L31.3,24.4 L39.3,0.1 L61.3,0.1 L61.3,2.3 L59.4,2.8 C57.1,3.4 56.4,3.6 56.4,8.2 L56.4,38.7 C56.4,43.3 57.1,43.5 59.4,44.1 L61.3,44.6 L61.3,46.8 L36.1,46.8 L36.1,44.6 L38,44.1 C40.4,43.5 41,43.3 41,38.7 L41,7.2 L40.7,7.2 L28.2,45.8 L23,45.8 L10,7.2 L9.7,7.2 L9.7,37.6 C9.7,43.2 10.1,43.5 13,44.1 L14.9,44.6 L14.9,46.8 L0.8,46.8 L0.8,44.6 L0.8,44.6 Z"></path>
                <path d="M62.1,45 L63.9,44.6 C65.9,44.1 66.5,43.9 66.5,40 L66.5,14 C66.5,10.1 66,9.9 63.9,9.4 L62.1,9 L62.1,7.1 L83.9,7.1 L83.9,9 L82.1,9.4 C80.1,9.9 79.5,10.1 79.5,14 L79.5,40 C79.5,43.9 80,44.1 82.1,44.6 L83.9,45 L83.9,46.9 L62.1,46.9 L62.1,45 L62.1,45 Z"></path>
                <path d="M92.5,14.7 L92.3,14.7 L92.3,39 C92.3,43.8 92.7,44 95.3,44.6 L97.2,45 L97.2,46.9 L84.7,46.9 L84.7,45 L86.3,44.6 C88.3,44.1 88.9,43.9 88.9,39.4 L88.9,14 C88.9,10.1 88.3,9.9 86.3,9.4 L84.7,9 L84.7,7.1 L102.5,7.1 L116.9,27 L117.1,27 L117.1,15 C117.1,10.2 116.7,10.1 114.1,9.5 L112.1,9 L112.1,7.1 L124.7,7.1 L124.7,9 L123.1,9.4 C121.1,9.9 120.5,10.1 120.5,14.6 L120.5,46.9 L115.5,46.9 L92.5,14.7 L92.5,14.7 Z"></path>
                <path d="M125.6,45 L127.4,44.6 C129.4,44.1 130,43.9 130,40 L130,14 C130,10.1 129.5,9.9 127.4,9.4 L125.6,9 L125.6,7.1 L147.4,7.1 L147.4,9 L145.6,9.4 C143.6,9.9 143,10.1 143,14 L143,40 C143,43.9 143.5,44.1 145.6,44.6 L147.4,45 L147.4,46.9 L125.6,46.9 L125.6,45 L125.6,45 Z"></path>
                <path d="M156.1,14.7 L155.9,14.7 L155.9,39 C155.9,43.8 156.3,44 158.9,44.6 L160.8,45 L160.8,46.9 L148.3,46.9 L148.3,45 L149.9,44.6 C151.9,44.1 152.5,43.9 152.5,39.4 L152.5,14 C152.5,10.1 151.9,9.9 149.9,9.4 L148.3,9 L148.3,7.1 L166,7.1 L180.4,27 L180.6,27 L180.6,15 C180.6,10.2 180.2,10.1 177.6,9.5 L175.6,9 L175.6,7.1 L188.2,7.1 L188.2,9 L186.6,9.4 C184.6,9.9 184,10.1 184,14.6 L184,46.9 L179,46.9 L156.1,14.7 L156.1,14.7 Z"></path>
                <path d="M189.7,27.1 C189.7,12.4 200.4,6.5 213.2,6.5 C217.8,6.5 221.7,7.2 224.1,7.9 L224.6,20.3 L222.6,20.3 C220.7,16.7 219.4,14.7 217.7,12.3 C215.8,9.6 214.4,9 211.9,9 C205.6,9 203.4,14.2 203.4,26.3 C203.4,40.6 204.9,44.9 211.2,44.9 C212.5,44.9 213.5,44.5 214.3,43.9 L214.3,35.2 C214.3,31.3 213.8,31.1 211.7,30.6 L210.1,30.2 L210.1,28.3 L229.6,28.3 L229.6,30.2 L228.4,30.5 C226.6,31 226.4,31.2 226.4,35.1 L226.4,44.9 C222.8,46.3 215.9,47.3 211.5,47.3 C196.8,47.6 189.7,40 189.7,27.1 L189.7,27.1 Z"></path>
            </g>
            <path d="M237.1,59.3 C237.1,55.7 240.1,53.4 243.7,52.3 C242.8,50.8 242.2,49.2 242.2,47.2 C242.2,43.1 245.9,39.5 251,39.5 C255.7,39.5 258.2,41.8 258.2,44.5 C258.2,47.5 254.6,49.6 251.5,50.7 C253.6,53.5 255.5,55.9 257.5,58 C258.3,56.7 258.8,55.2 258.8,54.2 C258.8,53.3 258.3,52.9 257.5,52.6 L256.5,52.3 L256.5,51.1 L265.5,51.1 L265.5,52.3 L264.7,52.5 C263,52.9 261.9,54.3 260.1,57.1 C259.6,57.8 259.1,58.6 258.7,59.2 C259.8,60.4 260.8,61.4 261.9,62.5 C262.7,63.3 263.5,64 264.5,64.1 L265.3,64.4 L265.3,65.6 L255,65.6 L253.6,64.3 C252,65.4 250,66.1 247.1,66.1 C240.6,66.3 237.1,63.4 237.1,59.3 L237.1,59.3 Z M252.4,63.3 C249.7,60.5 247,57.2 244.6,53.6 C244.2,54.5 244,55.8 244,57.7 C244,61.9 246.4,64 249.3,64 C250.6,64.1 251.5,63.8 252.4,63.3 L252.4,63.3 Z M253.5,44.6 C253.5,42.4 252.6,41.1 251,41.1 C249.5,41.1 248.5,42.2 248.5,44.3 C248.5,46.5 249.3,47.8 250.7,49.8 C252.3,48.7 253.5,47.3 253.5,44.6 L253.5,44.6 Z" id="Shape" fill="#929E9C" sketch:type="MSShapeGroup"></path>
            <g transform="translate(0.000000, 71.000000)" id="Shape" fill="#607875" sketch:type="MSShapeGroup">
                <path d="M0.7,39 L2.6,38.6 C4.9,38.1 5.5,37.9 5.5,34 L5.5,7.7 C5.5,3.8 4.8,3.5 2.6,3.1 L0.7,2.7 L0.7,0.8 L39,0.8 L39.6,13.3 L37.3,13.3 C35.5,9.8 34.3,8.1 33.2,6.7 C30.9,3.9 29.2,3.7 25.3,3.7 C22.5,3.7 21.1,4 20.2,4.3 L20.2,18.8 L21.1,18.8 C25.5,18.8 26.2,18.2 26.9,17.1 C28,15.6 28.5,14.5 29.2,12.6 L31.5,12.6 L31.5,28 L29.2,28 C28.6,26.2 28,24.9 26.9,23.2 C26.1,21.9 25.4,21.5 21,21.5 L20.2,21.5 L20.2,32.9 C20.2,37.5 20.4,38.1 25.9,38.1 C30.9,38.1 31.9,37.5 34.4,34.2 C35.7,32.5 36.9,30.3 38.9,26.3 L41.3,26.3 L40.4,41 L0.7,41 L0.7,39 L0.7,39 Z"></path>
                <path d="M51.2,8.4 L51,8.4 L51,32.9 C51,37.7 51.5,37.9 54.4,38.5 L56.5,38.9 L56.5,40.8 L42.3,40.8 L42.3,39 L44.2,38.6 C46.5,38.1 47.1,37.9 47.1,33.4 L47.1,7.7 C47.1,3.8 46.4,3.5 44.2,3.1 L42.3,2.7 L42.3,0.8 L62.4,0.8 L78.7,20.9 L79,20.9 L79,8.7 C79,3.9 78.6,3.8 75.6,3.1 L73.3,2.6 L73.3,0.7 L87.5,0.7 L87.5,2.6 L85.6,3 C83.3,3.5 82.7,3.7 82.7,8.2 L82.7,40.9 L77.1,40.9 L51.2,8.4 L51.2,8.4 Z"></path>
                <path d="M88.7,39 L90.6,38.6 C92.9,38.1 93.5,37.9 93.5,34 L93.5,7.7 C93.5,3.8 92.8,3.5 90.6,3.1 L88.7,2.7 L88.7,0.8 L127,0.8 L127.6,13.3 L125.3,13.3 C123.5,9.8 122.3,8.1 121.2,6.7 C118.9,3.9 117.2,3.7 113.3,3.7 C110.5,3.7 109.1,4 108.2,4.3 L108.2,18.8 L109.1,18.8 C113.5,18.8 114.2,18.2 114.9,17.1 C116,15.6 116.5,14.5 117.2,12.6 L119.5,12.6 L119.5,28 L117.2,28 C116.6,26.2 116,24.9 114.9,23.2 C114.1,21.9 113.4,21.5 109,21.5 L108.2,21.5 L108.2,32.9 C108.2,37.5 108.4,38.1 113.9,38.1 C118.9,38.1 119.9,37.5 122.4,34.2 C123.7,32.5 124.9,30.3 126.9,26.3 L129.3,26.3 L128.4,41 L88.8,41 L88.7,39 L88.7,39 Z"></path>
                <path d="M130.3,39 L132.2,38.6 C134.5,38.1 135.1,37.9 135.1,34 L135.1,7.7 C135.1,3.8 134.4,3.5 132.2,3.1 L130.3,2.7 L130.3,0.8 L153.5,0.8 C168.1,0.8 173.8,4.5 173.8,11.6 C173.8,16.9 171.4,19.7 165.7,21.2 L165.7,21.4 C168,26.4 172.1,33 175.6,37.4 C176.3,38.3 176.7,38.3 178.1,38.7 L179,39 L179,40.9 L161.8,40.9 C158.8,37.1 154.4,29 152.5,24 C151.6,24 150.2,23.9 149.7,23.9 L149.7,34 C149.7,37.9 150.3,38.2 152.4,38.6 L154.3,39 L154.3,40.9 L130.3,40.9 L130.3,39 L130.3,39 Z M159.1,12.5 C159.1,6 158,3.6 153.2,3.6 C151.6,3.6 150.2,3.8 149.7,4 L149.7,21.3 C150.2,21.4 150.9,21.5 152.5,21.5 C157,21.4 159.1,19.5 159.1,12.5 L159.1,12.5 Z"></path>
                <path d="M177.9,20.9 C177.9,6.1 190,0 204.5,0 C209.7,0 214.2,0.7 216.8,1.5 L217.4,14 L215.1,14 C213,10.4 211.5,8.4 209.5,5.9 C207.4,3.2 205.8,2.6 202.9,2.6 C195.8,2.6 193.2,7.9 193.2,20.1 C193.2,34.5 194.9,38.9 202,38.9 C203.5,38.9 204.6,38.5 205.5,37.9 L205.5,29.1 C205.5,25.2 204.9,25 202.6,24.5 L200.7,24.1 L200.7,22.2 L223,22.2 L223,24.1 L221.7,24.4 C219.7,24.9 219.4,25.2 219.4,29.1 L219.4,39 C215.3,40.5 207.5,41.4 202.6,41.4 C186,41.6 177.9,34 177.9,20.9 L177.9,20.9 Z"></path>
                <path d="M230.5,39 L232.6,38.6 C235.4,38.1 235.7,37.9 235.7,34 L235.7,24.3 L225.7,7.9 C223.4,4.2 222.7,3.5 221,3 L219.8,2.7 L219.8,0.8 L245.4,0.8 L245.4,2.7 L243.3,3.1 C241.6,3.4 240.8,4.2 240.8,5.6 C240.8,6.5 241.3,7.6 242,9 L248,20 L248.3,20 L253.5,9.5 C254.4,7.7 254.7,6.5 254.7,5.4 C254.7,4.1 253.8,3.4 251.9,2.9 L250.2,2.5 L250.2,0.6 L264.7,0.6 L264.7,2.5 L263.4,2.8 C261.5,3.3 260.2,5.1 258.5,8.2 L250.2,23.8 L250.2,33.8 C250.2,37.7 250.5,37.9 253.3,38.4 L255.4,38.8 L255.4,40.7 L230.4,40.7 L230.5,39 L230.5,39 Z"></path>
            </g>
            <g transform="translate(66.000000, 0.000000)" id="Shape" fill="#000000" sketch:type="MSShapeGroup">
                <path d="M0,11.4714286 C0,4.24285714 4.28823529,1.72857143 9.52941176,1.72857143 C11.5941176,1.72857143 13.5,2.04285714 14.6117647,2.35714286 L14.9294118,7.7 L13.9764706,7.7 C13.5,6.28571429 12.8647059,4.87142857 12.2294118,3.92857143 C11.5941176,3.14285714 11.1176471,2.98571429 9.21176471,2.98571429 C5.24117647,2.98571429 3.17647059,4.87142857 3.17647059,11 C3.17647059,17.6 5.08235294,19.8 8.73529412,19.8 C11.2764706,19.8 11.7529412,19.1714286 12.3882353,18.2285714 C13.1823529,17.1285714 13.5,16.3428571 13.9764706,14.9285714 L14.7705882,14.9285714 L14.4529412,19.8 C13.1823529,20.4285714 10.9588235,21.0571429 8.57647059,21.0571429 C3.65294118,21.0571429 0,18.2285714 0,11.4714286 L0,11.4714286 Z"></path>
                <path d="M15.8823529,17.4428571 C15.8823529,15.2428571 17.4705882,14.1428571 20.6470588,13.3571429 L23.8235294,12.7285714 L23.8235294,10.2142857 C23.8235294,8.48571429 23.5058824,7.54285714 21.2823529,7.54285714 C20.0117647,7.54285714 19.8529412,7.85714286 19.8529412,8.64285714 C19.6941176,9.74285714 19.3764706,10.3714286 18.2647059,10.3714286 C17.1529412,10.3714286 16.8352941,9.74285714 16.8352941,8.95714286 C16.8352941,7.22857143 19.6941176,6.44285714 21.9176471,6.44285714 C25.2529412,6.44285714 26.6823529,7.7 26.6823529,9.9 L26.6823529,17.9142857 C26.6823529,18.5428571 26.8411765,19.0142857 27.4764706,19.3285714 C27.7941176,19.4857143 28.2705882,19.4857143 28.7470588,19.6428571 L28.7470588,20.4285714 C28.2705882,20.7428571 27.3176471,21.0571429 26.3647059,21.0571429 C24.9352941,21.0571429 24.3,20.4285714 24.1411765,19.4857143 L23.8235294,19.4857143 C23.1882353,20.4285714 21.6,21.0571429 20.0117647,21.0571429 C17.4705882,21.0571429 15.8823529,19.8 15.8823529,17.4428571 L15.8823529,17.4428571 Z M23.8235294,18.2285714 L23.8235294,14.1428571 L21.7588235,14.3 C19.8529412,14.4571429 18.7411765,15.2428571 18.7411765,17.2857143 C18.7411765,18.8571429 19.6941176,19.4857143 21.2823529,19.4857143 C22.5529412,19.4857143 23.5058824,18.8571429 23.8235294,18.2285714 L23.8235294,18.2285714 Z"></path>
                <path d="M28.9058824,19.9571429 L30.0176471,19.6428571 C30.4941176,19.4857143 30.8117647,19.3285714 30.8117647,18.2285714 L30.8117647,9.9 C30.8117647,8.8 30.6529412,8.8 30.0176471,8.48571429 L28.9058824,8.01428571 L28.9058824,7.38571429 L33.1941176,6.75714286 L33.5117647,6.91428571 L33.3529412,8.48571429 L33.5117647,8.48571429 C34.9411765,7.7 36.8470588,6.75714286 38.5941176,6.75714286 C41.2941176,6.75714286 42.2470588,7.85714286 42.2470588,10.3714286 L42.2470588,18.3857143 C42.2470588,19.4857143 42.4058824,19.6428571 43.0411765,19.8 L44.1529412,20.1142857 L44.1529412,20.9 L37.8,20.9 L37.8,20.1142857 L38.9117647,19.8 C39.3882353,19.6428571 39.5470588,19.4857143 39.5470588,18.3857143 L39.5470588,11 C39.5470588,9.11428571 38.9117647,8.48571429 37.1647059,8.48571429 C35.8941176,8.48571429 34.3058824,8.95714286 33.5117647,9.27142857 L33.5117647,18.2285714 C33.5117647,19.3285714 33.6705882,19.4857143 34.1470588,19.6428571 L35.2588235,19.9571429 L35.2588235,20.7428571 L28.9058824,20.7428571 L28.9058824,19.9571429 L28.9058824,19.9571429 Z"></path>
                <path d="M44.6294118,17.4428571 C44.6294118,15.2428571 46.2176471,14.1428571 49.3941176,13.3571429 L52.5705882,12.7285714 L52.5705882,10.2142857 C52.5705882,8.48571429 52.2529412,7.54285714 50.0294118,7.54285714 C48.7588235,7.54285714 48.6,7.85714286 48.6,8.64285714 C48.4411765,9.74285714 48.1235294,10.3714286 47.0117647,10.3714286 C45.9,10.3714286 45.5823529,9.74285714 45.5823529,8.95714286 C45.5823529,7.22857143 48.4411765,6.44285714 50.6647059,6.44285714 C54,6.44285714 55.4294118,7.7 55.4294118,9.9 L55.4294118,17.9142857 C55.4294118,18.5428571 55.5882353,19.0142857 56.2235294,19.3285714 C56.5411765,19.4857143 57.0176471,19.4857143 57.4941176,19.6428571 L57.4941176,20.4285714 C57.0176471,20.7428571 56.0647059,21.0571429 55.1117647,21.0571429 C53.6823529,21.0571429 53.0470588,20.4285714 52.8882353,19.4857143 L52.7294118,19.4857143 C52.0941176,20.4285714 50.5058824,21.0571429 48.9176471,21.0571429 C46.2176471,21.0571429 44.6294118,19.8 44.6294118,17.4428571 L44.6294118,17.4428571 Z M52.5705882,18.2285714 L52.5705882,14.1428571 L50.5058824,14.3 C48.6,14.4571429 47.4882353,15.2428571 47.4882353,17.2857143 C47.4882353,18.8571429 48.4411765,19.4857143 50.0294118,19.4857143 C51.1411765,19.4857143 52.0941176,18.8571429 52.5705882,18.2285714 L52.5705882,18.2285714 Z"></path>
                <path d="M57.8117647,14.3 C57.8117647,9.11428571 61.4647059,6.6 65.4352941,6.6 C66.5470588,6.6 67.5,6.75714286 67.9764706,6.91428571 C67.9764706,6.91428571 67.8176471,5.81428571 67.8176471,4.87142857 L67.8176471,3.3 C67.8176471,2.2 67.6588235,2.2 67.0235294,1.88571429 L65.9117647,1.41428571 L65.9117647,0.628571429 L70.5176471,0.157142857 L70.8352941,0.314285714 C70.8352941,0.314285714 70.6764706,1.41428571 70.6764706,3.45714286 L70.6764706,17.6 C70.6764706,18.8571429 70.8352941,19.0142857 71.4705882,19.3285714 L72.4235294,19.8 L72.4235294,20.5857143 L68.1352941,21.2142857 L67.9764706,21.0571429 L68.1352941,19.6428571 L67.9764706,19.6428571 C66.8647059,20.4285714 64.9588235,21.2142857 63.2117647,21.2142857 C60.6705882,21.0571429 57.8117647,19.3285714 57.8117647,14.3 L57.8117647,14.3 Z M67.9764706,18.2285714 L67.9764706,8.8 C67.3411765,8.17142857 66.5470588,7.7 65.2764706,7.7 C62.4176471,7.7 60.6705882,9.27142857 60.6705882,13.6714286 C60.6705882,17.6 62.1,19.1714286 64.8,19.1714286 C66.3882353,19.1714286 67.3411765,18.5428571 67.9764706,18.2285714 L67.9764706,18.2285714 Z"></path>
                <path d="M72.9,19.9571429 L74.0117647,19.6428571 C74.4882353,19.4857143 74.8058824,19.3285714 74.8058824,18.2285714 L74.8058824,9.9 C74.8058824,8.8 74.6470588,8.8 74.0117647,8.48571429 L72.9,8.01428571 L72.9,7.38571429 L77.3470588,6.75714286 L77.6647059,6.91428571 C77.6647059,6.91428571 77.5058824,8.01428571 77.5058824,9.9 L77.5058824,18.2285714 C77.5058824,19.3285714 77.6647059,19.4857143 78.1411765,19.6428571 L79.2529412,19.9571429 L79.2529412,20.7428571 L72.9,20.7428571 L72.9,19.9571429 L72.9,19.9571429 Z M74.1705882,2.35714286 C74.1705882,1.41428571 74.9647059,0.628571429 76.0764706,0.628571429 C77.0294118,0.628571429 77.8235294,1.41428571 77.8235294,2.35714286 C77.8235294,3.3 77.0294118,4.08571429 76.0764706,4.08571429 C74.9647059,4.24285714 74.1705882,3.3 74.1705882,2.35714286 L74.1705882,2.35714286 Z"></path>
                <path d="M79.7294118,17.4428571 C79.7294118,15.2428571 81.3176471,14.1428571 84.4941176,13.3571429 L87.6705882,12.7285714 L87.6705882,10.2142857 C87.6705882,8.48571429 87.3529412,7.54285714 85.1294118,7.54285714 C83.8588235,7.54285714 83.7,7.85714286 83.7,8.64285714 C83.5411765,9.74285714 83.2235294,10.3714286 82.1117647,10.3714286 C81,10.3714286 80.6823529,9.74285714 80.6823529,8.95714286 C80.6823529,7.22857143 83.5411765,6.44285714 85.7647059,6.44285714 C89.1,6.44285714 90.5294118,7.7 90.5294118,9.9 L90.5294118,17.9142857 C90.5294118,18.5428571 90.6882353,19.0142857 91.3235294,19.3285714 C91.6411765,19.4857143 92.1176471,19.4857143 92.5941176,19.6428571 L92.5941176,20.4285714 C92.1176471,20.7428571 91.1647059,21.0571429 90.2117647,21.0571429 C88.7823529,21.0571429 88.1470588,20.4285714 87.9882353,19.4857143 L87.8294118,19.4857143 C87.1941176,20.4285714 85.6058824,21.0571429 84.0176471,21.0571429 C81.3176471,21.0571429 79.7294118,19.8 79.7294118,17.4428571 L79.7294118,17.4428571 Z M87.6705882,18.2285714 L87.6705882,14.1428571 L85.6058824,14.3 C83.7,14.4571429 82.5882353,15.2428571 82.5882353,17.2857143 C82.5882353,18.8571429 83.5411765,19.4857143 85.1294118,19.4857143 C86.2411765,19.4857143 87.1941176,18.8571429 87.6705882,18.2285714 L87.6705882,18.2285714 Z"></path>
                <path d="M92.5941176,19.9571429 L93.7058824,19.6428571 C94.1823529,19.4857143 94.5,19.3285714 94.5,18.2285714 L94.5,9.9 C94.5,8.8 94.3411765,8.8 93.7058824,8.48571429 L92.5941176,8.01428571 L92.5941176,7.38571429 L96.8823529,6.75714286 L97.2,6.91428571 L97.0411765,8.48571429 L97.2,8.48571429 C98.6294118,7.7 100.535294,6.75714286 102.282353,6.75714286 C104.982353,6.75714286 105.935294,7.85714286 105.935294,10.3714286 L105.935294,18.3857143 C105.935294,19.4857143 106.094118,19.6428571 106.729412,19.8 L107.841176,20.1142857 L107.841176,20.9 L101.488235,20.9 L101.488235,20.1142857 L102.6,19.8 C103.076471,19.6428571 103.235294,19.4857143 103.235294,18.3857143 L103.235294,11 C103.235294,9.11428571 102.6,8.48571429 100.852941,8.48571429 C99.5823529,8.48571429 97.9941176,8.95714286 97.2,9.27142857 L97.2,18.2285714 C97.2,19.3285714 97.3588235,19.4857143 97.8352941,19.6428571 L98.9470588,19.9571429 L98.9470588,20.7428571 L92.5941176,20.7428571 L92.5941176,19.9571429 L92.5941176,19.9571429 Z"></path>
            </g>
        </g>
    </g>
</svg>