<svg xmlns="http://www.w3.org/2000/svg" viewBox="0 -2.5 48 45.5">
  <defs>
    <linearGradient id="treeGradient" x1="100%" y1="100%">
      <stop offset="0%" stop-color="orange">
        <animate attributeName="stop-color" dur="14s" repeatCount="indefinite" values="orange;gold;orange" />
      </stop>
      <stop offset="100%" stop-color="#ffaf1a">
        <animate attributeName="stop-color" dur="14s" repeatCount="indefinite" values="#ffaf1a;gold;#ffaf1a" />
        <animate attributeName="offset" dur="14s" repeatCount="indefinite" values="0.95;0.80;0.60;0.40;0.20;0;0.20;0.40;0.60;0.80;0.95"
        />
      </stop>
    </linearGradient>
    <linearGradient id="leafGradient" x1="100%" y1="100%">
      <stop offset="0%" stop-color="#cc0">
        <animate attributeName="stop-color" dur="14s" repeatCount="indefinite" values="#cccc00;gold;#cccc00" />
      </stop>
      <stop offset="100%" stop-color="gold">
        <animate attributeName="offset" dur="14s" repeatCount="indefinite" values="0.95;0.80;0.60;0.40;0.20;0;0.20;0.40;0.60;0.80;0.95"
        />
        <animate attributeName="stop-color" dur="14s" repeatCount="indefinite" values="gold;#bbbb00;gold" />
      </stop>
    </linearGradient>
    <radialGradient id="goldStroke">
      <stop offset="0%" stop-color="orange" />
      <stop offset="100%" stop-color="gold">
        <animate attributeName="offset" dur="20s" repeatCount="indefinite" values="0.95;0.80;0.60;0.40;0.20;0;0.20;0.40;0.60;0.80;0.95"
        />
      </stop>
    </radialGradient>
  </defs>
  <style>
    @keyframes leafWind {
      0% {
        transform: rotate(0deg)
      }
      25% {
        transform: rotate(-1deg)
      }
      75% {
        transform: rotate(1deg)
      }
    }

    * {
      stroke-width: .35px;
      stroke: none
    }

    .tree {
      fill: url(#treeGradient)
    }

    .tree.accent {
      stroke: none;
      fill: orange
    }

    .leaf,
    .tree {
      stroke: url(#goldStroke)
    }

    .leaf {
      fill: url(#leafGradient);
      animation-name: leafWind;
      transform-origin: center;
      animation-iteration-count: infinite
    }

    .leaf:nth-child(6n) {
      animation-duration: 3s
    }

    .leaf:nth-child(6n+1) {
      animation-duration: 4s
    }

    .leaf:nth-child(6n+2) {
      animation-duration: 5s
    }

    .leaf:nth-child(6n+3) {
      animation-duration: 6s
    }
    .leaf:nth-child(6n+4) {
      animation-duration: 7s
    }
    .leaf:nth-child(6n+5) {
      animation-duration: 8s;
    }

  </style>
  <g id="exciricon" transform="translate(-73,0)">
  <path d="M103.19 41.288c-.69-.576-1.332-.795-3.385-1.152-.749-.13-1.392-.331-1.43-.447-.04-.115-.266-.42-.504-.677-.422-.455-.441-.458-.694-.124-.144.19-.263.433-.267.54-.006.215-.583.792-.79.792-.072 0-.076-.283-.012-.629.096-.507.062-.628-.171-.628-.16 0-.29.066-.29.146 0 .228-1.045.672-2.566 1.089-1.208.332-2.599.517-1.968.262a.39.39 0 0 0 .225-.334c0-.151.309-.29.814-.366.963-.144 1.5-.539 1.564-1.15.067-.638-.992-.987-2.124-.702-.44.11-.843.272-.896.358-.054.087-.242.158-.419.158-.176 0-.555.113-.842.252-.88.425-1.689.536-1.689.232 0-.175.288-.311.853-.405.47-.078.894-.15.943-.16.05-.01.58-.307 1.18-.662.6-.354 1.379-.74 1.732-.856.53-.175.663-.322.759-.833.064-.342.194-.62.288-.62a.174.174 0 0 0 .171-.176c0-.096.232-.682.514-1.302.82-1.798.82-1.784.115-2.832-.692-1.03-.717-1.57-.13-2.846.251-.545.25-.647-.014-1.094-.16-.271-.345-.824-.41-1.23-.21-1.315-1.88-2.334-3.48-2.121-.58.077-.905.053-.905-.066 0-.102-.303-.187-.673-.189-.5-.002-.604-.047-.404-.177.148-.095.572-.175.943-.176.37-.002.673-.084.673-.183 0-.098-.435-.18-.966-.18-.805 0-.982.059-1.058.348-.068.26-.194.32-.497.242-.364-.096-.375-.128-.11-.323.164-.119.297-.301.297-.406 0-.104.092-.22.204-.258.386-.128-.252-.828-.86-.942-.426-.08-.557-.184-.48-.382.077-.202.248-.24.665-.15.983.212 2.026 1.153 1.279 1.153-.148 0-.27.102-.27.226 0 .165.488.228 1.83.235 1.245.007 1.852.079 1.9.224.04.117.186.213.326.213.325 0 .334-.649.01-.773-.133-.051-.34-.444-.459-.872-.506-1.823-.524-1.946-.285-1.946.127 0 .285-.14.35-.31.102-.264.143-.27.286-.044.24.378.211.533-.097.533-.42 0-.342.85.09.988.198.063.36.221.36.353 0 .291 1.179 1.353 1.503 1.353.295 0 .326-3.249.033-3.457-.13-.092-.122-.178.026-.274.118-.077.295-.34.392-.584.135-.338.18-.017.187 1.352.005.988.04 2.079.077 2.424.037.346-.018.683-.121.75-.132.084-.132.193 0 .359.105.13.245.541.311.912.093.51.207.673.478.673.196 0 .403.121.46.27a.446.446 0 0 0 .38.269c.235 0 .26-.207.16-1.384-.065-.76-.198-1.464-.296-1.562-.241-.242-.227-.825.02-.825.11 0 .155.114.101.254-.054.14.019.3.16.354.142.054.259.256.259.449 0 .54.192.918.468.918.302 0 .304-.029.048-.665-.514-1.28-.77-2.118-1.07-3.51.012-.47 1.3.64 1.396.181.135-.666.319-1.393.408-1.616.144-.358.165-.33.175.238.015.887.228 1.019.499.31l.227-.595-.104.763c-.093.688-.067.764.271.764.206 0 .375-.095.375-.21 0-.115.05-.16.11-.1.133.133-.323 1.208-.513 1.208-.075 0-.136-.122-.136-.27 0-.421-.35-.316-.531.16-.09.237-.249.46-.353.495-.104.035-.228.447-.275.916-.068.67-.03.853.177.853.162 0 .264-.173.264-.449 0-.315.098-.448.328-.448.262 0 .312.107.25.538-.107.72.11.68.949-.18.508-.52.797-.688 1.048-.609.312.1.334.046.222-.548l-.123-.658.369.37c.203.202.369.449.369.548 0 .099.171.18.38.18.296 0 .359-.083.283-.37-.064-.245.005-.408.204-.481.146-.196.876-.029.715.154-1.546 1.841-1.864 2.12-2.293 2.007-.247-.064-.464-.008-.561.145-.127.2-.16.187-.162-.064-.004-.407-.356-.33-.816.18-.2.222-.463.404-.584.404-.12 0-.218.12-.218.27 0 .28.312.344.792.16.156-.06.238-.181.184-.27-.055-.088-.034-.17.045-.18.08-.012.376-.048.656-.081l.511-.06-.51.44c-.281.24-.612.439-.736.439-.123 0-.224.131-.224.292 0 .228.117.268.539.184.42-.084.538-.044.538.181 0 .242.14.27.839.175.97-.133 1.007-.158 1.047-.697.016-.223.103-.364.193-.315.09.05.14.191.112.315-.08.35.287.263.38-.09.06-.237.086-.214.102.09.014.275-.08.404-.298.404-.291 0-.938.572-.938.83 0 .058.194.058.432-.002.374-.094.418-.057.33.278-.091.35-.048.376.467.273.326-.065.567-.039.567.062 0 .25-.953.216-2.575-.095-1.966-.376-2.243-.355-2.49.19-.171.375-.153.554.103.987.172.291.253.53.179.53-.074 0-.004.1.156.224.49.379 1.078 1.725 1.141 2.613.033.464.017.702-.036.53-.053-.173-.206-.315-.34-.315-.133 0-.28.142-.324.315-.046.172-.092-.156-.103-.73-.022-1.075-.246-1.74-.587-1.74-.119 0-.146.157-.069.404.226.728.222 1.108-.019 2.15-.13.564-.187 1.158-.125 1.32.062.161.033.345-.065.41-.238.156-.466 1.337-.23 1.191.098-.06.23.036.294.216.063.179.273.5.465.715.216.24.398.792.474 1.437.151 1.281.204 1.37 1.05 1.777.518.25 1.327.355 3.46.447 2.282.1 2.942.191 3.662.51 1 .44 1.047.706.052.29-.357-.15-1.117-.272-1.688-.273-1.697-.002-5.449.418-5.387.604.031.094.384.268.785.386 1.206.356 1.742.659 2.277 1.284.688.805.538 1.063-.24.412z"
    class="tree" />
  <path d="M94.75 24.145c0-.38-1.25-1.883-1.567-1.883-.126 0-.209-.09-.184-.202.025-.111-.056-.24-.18-.284-.134-.05-.224.068-.224.291 0 .206.08.375.18.375.098 0 .18.16.18.355 0 .227.157.396.435.465.24.06.582.305.761.543.297.395.599.567.599.34z"
    class="tree accent" />
  <path d="M109.899 16.83c.058-.222.027-.431-.07-.464-.095-.033-.174-.215-.174-.404 0-.198-.124-.344-.292-.344-.231 0-.268.116-.18.56a5.8 5.8 0 0 1 .113.809c0 .406.488.279.603-.157z"
    class="tree accent" />
  <path d="M110.553 15.438c0-.36-.09-.539-.27-.539-.272 0-.384.723-.15.958.258.258.42.096.42-.419z" class="tree accent" />
  <path d="M95.369 8.678c.066-.262.034-.56-.07-.664-.133-.133-.19-.099-.19.115 0 .168-.121.306-.27.306-.302 0-.314.032-.16.434.17.442.558.334.69-.191z"
    class="tree accent" />
  <path d="M96.289 7.46c.348-.348.323-.462-.103-.462-.197 0-.359.034-.359.075 0 .041-.049.203-.109.36-.136.354.226.372.571.027z"
    class="tree accent" />
  <path d="M103.549 19.036c.444-.342.835-.685.868-.763.033-.078.16-.141.28-.141.318 0 1.186-.954 1.186-1.301 0-.162.081-.344.18-.405.099-.061.18-.231.18-.378 0-.146.161-.44.359-.651.197-.212.359-.451.359-.532 0-.437-1.84.183-2.376.8-.394.454-.602.304-.318-.227.115-.214.174-.425.13-.468-.154-.155-.668.152-.668.398 0 .137-.068.25-.151.25-.209 0-.61.918-.46 1.055.066.062.157.01.201-.113.044-.123.2-.224.345-.224.155 0 .212-.086.137-.207-.08-.13-.049-.159.08-.079.14.086-.062.46-.61 1.133-.85 1.044-1.408 2.128-1.237 2.404.055.089-.067.16-.27.16-.204 0-.37.087-.37.191 0 .105-.093.133-.207.062-.15-.092-.138-.181.045-.324.413-.324.785-1.561.518-1.726-.337-.208.471-1.437 1.932-2.938 1.084-1.115 1.663-1.862 1.663-2.147 0-.045-.2-.132-.443-.193-.297-.074-.409-.199-.34-.378.134-.349.603-.347.603.001 0 .15.16.27.36.27.199 0 .358.12.358.27 0 .147-.08.269-.18.269-.36 0-.188.853.193.953.463.12 1.422-.2 1.43-.477.003-.114.088-.064.19.111.102.175.261.271.354.214.093-.057.168-.024.168.073 0 .098-.18.204-.402.235-.472.068-.677.686-.226.686.162 0 .416-.12.564-.269.148-.148.398-.27.554-.27.255 0 .253.035-.013.329-.384.424-.38.792.006.717.167-.032.37-.32.454-.642.162-.624.341-.722.647-.353.258.31 1.65.18 1.65-.155 0-.19.104-.206.46-.07.636.241.796.22.796-.107 0-.154.085-.439.188-.632.165-.308.221-.32.45-.091.332.333.333 1.201 0 1.998-.308.738-.587.799-.746.163-.077-.306-.203-.426-.378-.359-.144.055-.378.1-.52.1-.143 0-.337.203-.43.45-.094.246-.254.448-.355.448-.101 0-.184.16-.184.354 0 .194-.466.836-1.034 1.426-1.03 1.07-1.035 1.072-1.343.693-.295-.363-.29-.392.092-.648.22-.148.426-.289.459-.313.032-.024-.028-.206-.134-.404-.14-.264-.136-.38.018-.43.353-.118.022-.659-.344-.563-.243.064-.404-.069-.595-.488-.249-.547-.65-.688-.596-.21.014.123-.087.224-.224.224-.147 0-.25.186-.25.45 0 .522.099.555.49.163.261-.261.302-.257.466.045.1.181.268.39.376.462.132.09.123.133-.03.134-.123.002-.215.064-.203.138.052.33-.036.584-.201.584-.099 0-.18-.132-.18-.292 0-.21-.062-.24-.224-.11-.124.1-.487.237-.808.305-.321.069-.584.2-.584.29 0 .091-.08.166-.177.166-.167 0-.638.34-1.177.853-.13.123-.318.224-.419.224-.08-.114-.495-.09-.382-.173z"
    class="leaf" />
  <path d="M95.509 17.952c-.204 0-.233-.146-.133-.673.148-.78.166-.902.528-3.59.15-1.11.226-2.14.169-2.29-.058-.149-.028-.27.065-.27s.182-.324.197-.72c.024-.606-.027-.717-.33-.717-.196 0-.357-.081-.357-.18 0-.259-.493-.222-.597.045-.057.146-.24.042-.523-.297-.353-.423-.524-.498-.915-.4-.837.21-1.327-.02-1.306-.615.015-.436.078-.506.378-.416.197.06.526.26.73.447.74.675 1.027.336.488-.577-.216-.366-.404-.49-.63-.42-.176.057-.447-.024-.602-.179-.366-.366-.57-.356-.67.033-.066.25-.087.235-.104-.068-.011-.21.102-.484.252-.609.223-.184.333-.172.598.068.488.442.925.375.925-.142 0-.459-.321-.871-.934-1.199-.366-.196-.366-.197.035-.582.282-.271.428-.32.486-.162.046.123.239.224.428.224.19 0 .344.072.344.16 0 .086.162.2.36.252.227.06.322.192.258.36-.056.146-.241.23-.41.186-.213-.056-.318.033-.337.285-.015.201.028.358.096.349.47-.067.752.07.752.365 0 .281.318.558.643.558.216 0 .031-.547-.24-.707-.262-.154-.272-.212-.06-.351.353-.232.734-.046.734.358 0 .187.08.34.18.34.098 0 .18-.202.18-.449 0-.329.095-.449.358-.449.307 0 .36.12.36.815 0 .449.13 1.014.291 1.259.327.499.237 1.374-.183 1.795-.344.343-.172.992.224.846.392-.144.56-.409.563-.89 0-.217.11-.46.243-.538.132-.08.332-.306.443-.503.184-.324.204-.303.209.224.006.675.201.756.457.192.17-.378.985-.614.985-.286 0 .088.092.104.204.034.147-.09.17.06.082.528-.115.614-.094.655.334.655.268 0 .457-.102.457-.247 0-.136.05-.5.113-.808.109-.546.094-.561-.54-.561-.537 0-.65-.065-.65-.372 0-.281.081-.345.338-.264.213.068.377.006.443-.167.116-.302.835-.384.835-.095 0 .098.134.18.297.18.271 0 .272.027.016.314-.156.172-.336.637-.402 1.032-.147.892-.74 2.863-1.087 3.619-.34.74-.329.96.054.963.214.002.126.124-.276.381-.638.409-1 .985-1.198 1.906-.087.401-.23.584-.456.584-.181 0-.366.1-.41.224-.044.123-.124.184-.178.135-.054-.05.217-.722.604-1.493.386-.772.702-1.513.702-1.646 0-.134.067-.27.149-.303.187-.075 1.108-2.02 1.107-2.339 0-.281-1.286-.363-1.463-.092-.064.098-.256-.091-.426-.42-.293-.567-.323-.581-.557-.262-.136.186-.247.484-.247.663 0 .179-.061.325-.136.325-.075 0-.23.303-.347.673-.116.37-.265.815-.332.988-.081.211-.035.314.14.314.145 0 .555-.465.912-1.032.57-.906.65-.974.655-.554.003.264.06.621.127.795.093.242.052.288-.178.2-.214-.082-.38.04-.58.426a5.68 5.68 0 0 1-.536.847c-.141.168-.384.467-.539.665-.278.354-.28.353-.17-.045.127-.464-.007-.516-.376-.147-.34.34-.325.64.034.64.195 0 .258.105.192.315.105 1.227-.776 1.719-1.339 2.559z"
    class="leaf" />
  <path d="M80.922 27.727c0-.512.26-1.088.698-1.55.16-.169.394-.431.522-.584.347-.417.576-.336.576.202 0 .627-.564 1.844-.858 1.85-.127.002-.277.126-.334.274-.172.448-.604.312-.604-.192z"
    class="leaf" />
  <path d="M117.979 27.743c-.652-.335-.926-.63-1.132-1.222-.15-.429-.148-.519.008-.363.256.256.701.104.701-.24 0-.14-.128-.304-.284-.364-.373-.143.014-.412.598-.416.223-.001.406-.104.407-.227.002-.156.044-.164.135-.027.073.109.314.293.536.41.525.277.511.518-.045.772-.504.23-.586.707-.18 1.045.619.513.018 1.024-.744.632z"
    class="leaf" />
  <path d="M114.623 27.17c-.066-.065-.12-.267-.12-.449 0-.208-.13-.329-.355-.329-.314 0-.331-.052-.15-.449.166-.365.332-.449.893-.449.38 0 .69.081.69.18 0 .099.13.18.291.18.239 0 .251.048.068.269-.123.148-.344.27-.49.27-.195 0-.237.12-.155.448.09.358.046.45-.22.45-.183 0-.386-.055-.452-.12z"
    class="leaf" />
  <path d="M79.208 26.738c-.065-.106.052-.375.26-.597.279-.296.525-.383.917-.325.296.043.537.115.537.16 0 .22-1.095.955-1.423.955-.094 0-.225-.087-.29-.193z"
    class="leaf" />
  <path d="M106.556 26.707c-.046-.124-.028-.382.04-.575.11-.304.152-.275.326.225.16.46.152.574-.04.574a.374.374 0 0 1-.326-.224z"
    class="leaf" />
  <path d="M107.769 26.572c-.06-.099-.025-.18.08-.18.104 0 .19.081.19.18 0 .099-.036.18-.08.18-.043 0-.129-.081-.19-.18z" class="leaf"
  />
  <path d="M85.502 26.392c-.061-.098-.026-.18.079-.18.104 0 .19.082.19.18 0 .099-.036.18-.08.18-.043 0-.128-.081-.19-.18z"
    class="leaf" />
  <path d="M87.567 26.067c0-.315.521-1.17.533-.874.003.081.132.02.288-.135.275-.275.795-.39.795-.175 0 .308-.65 1.146-.834 1.075-.118-.045-.258.034-.313.176-.14.367-.47.32-.47-.067z"
    class="leaf" />
  <path d="M112.537 26.222c-.144-.09-.317-.13-.386-.088-.13.08-.398-.463-.285-.576.112-.113 1.2.493 1.2.668 0 .21-.194.208-.53-.004z"
    class="leaf" />
  <path d="M74.582 26.098c-.219-.22.05-.375.498-.29.248.048.407.158.353.246-.114.184-.682.213-.85.044z" class="leaf" />
  <path d="M84.873 25.943c0-.323-.383-.353-.682-.054-.153.153-.272.16-.407.025-.135-.135-.109-.274.09-.472.32-.32.37-.666.097-.666-.104 0-.057-.247.106-.562.24-.465.25-.59.05-.716-.133-.084-.307-.154-.387-.156-.08-.001-.095-.084-.034-.183.075-.12.223-.12.448 0 .185.1.564.185.842.19l.506.01-.404.281c-.436.304-.545.775-.18.78.15.001.135.059-.043.172-.217.136-.224.213-.04.397.18.18.299.182.581.006.29-.181.355-.176.355.027 0 .137-.121.35-.27.472-.148.123-.269.335-.269.471 0 .136-.08.248-.18.248-.098 0-.179-.121-.179-.27z"
    class="leaf" />
  <path d="M107.263 26.096c-.256-.256-.105-.422.371-.408.289.008.382.057.225.117-.148.056-.315.172-.371.258-.057.085-.158.1-.225.033z"
    class="leaf" />
  <path d="M109.083 25.91c.129-.051.284-.045.344.015s-.047.102-.236.094c-.21-.009-.252-.051-.109-.109z" class="leaf" />
  <path d="M76.253 25.315c0-.099-.383-.182-.853-.186-1.388-.01-2.214-.96-.942-1.084.86-.084 1.743.208 1.983.657.128.238.304.433.392.433.088 0 .11.081.049.18-.061.099-.227.18-.37.18-.142 0-.259-.081-.259-.18z"
    class="leaf" />
  <path d="M103.729 25.334c.453-.252 1.257-.395 1.257-.223 0 .181-.619.38-1.168.375-.287-.002-.305-.032-.09-.152z" class="leaf"
  />
  <path d="M109.249 24.856c-.067-.355-.029-.365.706-.197.967.221.995.418.072.506-.6.057-.716.011-.777-.309z" class="leaf" />
  <path d="M112.573 25.188c-.45-.086-.505-.239-.2-.545.153-.152.066-.343-.345-.754l-.55-.55.47-.117c.258-.065.818-.025 1.245.09 1.27.339 1.67.28 1.67-.242 0-.28.101-.449.269-.449.148 0 .276-.141.283-.314.008-.188.051-.224.105-.09.05.124.273.225.495.225.222 0 .454.05.515.11.141.142-.316.608-.596.608-.12 0-.164.124-.103.284.06.156.109.358.109.449 0 .09.121.165.27.165.397 0 .327.377-.09.486-.407.107-.47.332-.135.484.238.11-.815-.038-1.347-.188-.173-.048-.314-.163-.314-.256 0-.223-.672-.885-.898-.885-.23 0-.236.841-.008.982.224.14.03.641-.236.61-.113-.014-.387-.06-.61-.103z"
    class="leaf" />
  <path d="M80.336 24.776c-.258-.3-.264-.36-.04-.36a.27.27 0 0 0 .267-.268c0-.302.457-.368.629-.09.191.31.787.205.772-.135-.023-.556.357-1.25.74-1.35.619-.162.505.859-.165 1.485-.297.277-.54.578-.54.67 0 .09-.242.13-.538.086-.323-.047-.539.001-.539.121 0 .306-.245.24-.586-.159z"
    class="leaf" />
  <path d="M105.973 24.956c-.342-.148-.34-.155.045-.167.223-.007.404.068.404.167 0 .098-.02.174-.045.167a9.383 9.383 0 0 1-.404-.167z"
    class="leaf" />
  <path d="M77.583 24.665a1.6 1.6 0 0 0 .107-.428c0-.083.242-.204.539-.269.296-.065.538-.193.538-.284 0-.283-.853-.18-.967.117-.065.17-.27.259-.513.224-.34-.048-.397-.153-.357-.663.045-.554.014-.595-.359-.482a8.42 8.42 0 0 1-1.126.209c-1.338.16-2.3-.819-.99-1.007.409-.058.648-.199.687-.404.048-.25-.066-.314-.56-.314-.639 0-1.141-.38-.937-.71.176-.286.982-.224 1.306.1.197.198.474.258.881.191.802-.13.943.17.15.318-.344.064-.626.186-.626.27 0 .286.597.381 1.65.262.92-.104 1.039-.161.946-.455-.086-.27-.014-.335.367-.335.388 0 .463-.073.416-.404-.05-.347-.196-.419-1.045-.51l-.988-.105.943-.03c.519-.015.943-.11.943-.208 0-.099-.157-.18-.349-.18-.437 0-.653-.326-.39-.59.145-.145.262-.112.436.126.273.373.931.32.931-.077 0-.147-.161-.275-.359-.285-.197-.01-.4-.04-.449-.068-.05-.028-.44-.073-.866-.101-.429-.028-.872-.173-.988-.323-.116-.15-.412-.298-.658-.33-.424-.055-1.062-.943-.838-1.167.218-.218 1.412.374 1.813.9.371.486.54.565 1.166.542.402-.015.777.046.832.135.054.088.259.16.453.16.195 0 .401.122.458.27.057.148.216.27.354.27.137 0 .25.12.25.269 0 .148.12.27.269.27.287 0 .328-.213.16-.837-.07-.262-.295-.423-.697-.498-.327-.062-.693-.23-.814-.376-.12-.146-.434-.265-.696-.265-.262 0-.664-.13-.892-.29-.613-.43-1.636-2.113-1.53-2.518.07-.267-.042-.383-.504-.519-.718-.211-.772-.642-.109-.875.339-.12.709-.097 1.223.072l.737.244-.459.278c-.472.287-.65.796-.219.631.132-.05.342.03.465.178.188.226.149.289-.24.387-.72.18-.557.525.253.535.474.006.718-.07.718-.224 0-.313 1.018-.305 1.203.01a.903.903 0 0 0 .413.337c.177.061.088.142-.26.234-.353.093-.552.07-.598-.068-.102-.304-.578-.254-.578.062 0 .148.086.269.192.269.106 0 .314.121.462.27.148.147.453.269.678.269.224 0 .554.161.733.359.179.197.393.359.477.359.21 0 .19-.67-.034-1.09-.129-.239-.129-.347 0-.347.102 0 .185.081.185.18 0 .272.53.215.834-.09.148-.148.365-.267.481-.264.117.004.058.122-.13.264-.28.214-.3.306-.112.533.156.188.164.275.027.275-.11 0-.202.162-.202.36 0 .26.12.359.434.359.239 0 .472-.101.518-.225.052-.14.13-.089.204.135.066.197.24.592.386.877.146.285.211.568.145.629-.066.06-.156.009-.2-.115-.044-.123-.3-.224-.568-.224-.268 0-.583-.096-.7-.212-.117-.117-.274-.151-.35-.076-.076.076.014.249.2.384.228.167.293.35.202.569-.089.216-.16.249-.217.098-.118-.318-.772-.28-.772.045 0 .148.125.27.278.27.152 0 .463.185.69.412.451.452.77 1.383.472 1.383-.1 0-.183.082-.183.183 0 .1-.29.465-.646.81-.62.603-.675.62-1.366.434-.733-.197-1.22-.132-1.22.163 0 .09.182.214.404.275.33.09.356.141.14.28-.146.094-.205.23-.132.303.158.158-.831.607-1.551.703-.402.054-.488.01-.404-.209z"
    class="leaf" />
  <path d="M77.343 22.435c.518-.277.42-.48-.192-.39-.301.043-.538.188-.538.327 0 .296.253.318.73.063z" class="leaf" />
  <path d="M80.743 22.312c0-.126.06-.23.134-.23.23 0 1.123-.838 1.123-1.053 0-.112-.167-.204-.37-.204-.203 0-.329.067-.278.148.177.287-.602.759-1.063.643-.272-.068-.444-.034-.444.088 0 .11-.283.199-.629.199-.77 0-.885.485-.134.572 1.065.122 1.66.064 1.66-.163z"
    class="leaf" />
  <path d="M80.57 20.908c.338-.409-.013-.656-.835-.589-.81.067-1.097.603-.394.737.793.152 1 .127 1.229-.148z" class="leaf"
  />
  <path d="M102.83 24.776c-.226-.146-.216-.174.067-.177.246-.002.31-.098.24-.362-.08-.307-.005-.359.519-.359.41 0 .611-.084.611-.257 0-.31.553-.513.964-.356.403.155 1.55-.413 1.55-.766 0-.228-.141-.265-.718-.188-.808.108-.946-.133-.362-.634.576-.492 1.226-.579 1.626-.217.374.338.473.802.173.802-.299 0-.202.508.134.704.26.15.266.184.036.188a.758.758 0 0 1-.478-.194c-.284-.284-.59-.035-.59.48 0 .24-.08.438-.18.438a.184.184 0 0 1-.18-.187c0-.102-.217.016-.483.262-.341.317-.549.396-.702.27-.314-.261-1.117-.008-1.244.391-.117.37-.551.44-.982.162z"
    class="leaf" />
  <path d="M111.043 24.838c.122-.05.364-.052.539-.007.174.046.075.086-.221.09-.297.003-.44-.034-.318-.083z" class="leaf" />
  <path d="M87.028 24.597c0-.1-.303-.185-.673-.192-.657-.011-.65-.018.282-.269.808-.217.994-.22 1.201-.012.208.207.176.277-.2.449-.547.249-.61.251-.61.023z"
    class="leaf" />
  <path d="M110.108 24.09c-.066-.067-.377-.217-.69-.333l-.571-.21.686-.014c.377-.008.807-.135.955-.283.149-.148.336-.27.417-.27.082 0 .194.122.251.27.072.186-.012.269-.27.269-.247 0-.34.085-.274.255.103.27-.3.523-.504.316z"
    class="leaf" />
  <path d="M117.43 23.85c-.793-.178-.901-.568-.216-.785.459-.146.432-.525-.066-.925-.225-.18-.5-.63-.612-1-.203-.673-.203-.674.332-.674.294 0 .874-.199 1.29-.442.766-.45 1.553-.457 1.553-.015 0 .341-.738.59-1.481.5-.817-.1-.92.276-.225.823.541.426.58.864.09 1.02-.368.117-.508.628-.172.628.315 0 .936.679.809.884-.137.221-.26.22-1.302-.014z"
    class="leaf" />
  <path d="M108.364 23.756c.13-.052.285-.046.344.014.06.06-.046.102-.235.094-.21-.009-.252-.051-.109-.108z" class="leaf" />
  <path d="M85.636 23.24c-.323-.351-.277-.746.135-1.158.198-.197.39-.359.426-.359.068 0-.21 1.643-.292 1.718-.024.023-.145-.068-.269-.202z"
    class="leaf" />
  <path d="M95.094 20.967c.042-1.214.11-2.008.152-1.765.043.243.181.526.309.629.127.102.268.401.313.664.063.365.02.453-.18.376-.213-.081-.243.033-.16.6.228 1.572.225 1.597-.15 1.65-.346.05-.356-.029-.284-2.154z"
    class="leaf" />
  <path d="M108.981 23.032c-.222-.042-.404-.182-.404-.31 0-.231 2.086-.589 2.283-.392.05.05-.221.232-.602.406-.887.404-.807.385-1.277.296z"
    class="leaf" />
  <path d="M112.048 22.408c-.214-.103-.443-.4-.508-.66-.15-.598-.377-.737-1.212-.74-.685-.003-.908-.283-.386-.484.158-.06.35-.009.427.115.084.136.29.177.52.104.524-.166.481-.456-.067-.456-.28 0-.449-.102-.449-.27 0-.15-.16-.27-.36-.27-.197 0-.358.069-.358.152 0 .083-.303.24-.674.35-1.152.341-1.66.41-1.66.227 0-.237.605-.549 1.065-.549.204 0 .37-.07.37-.158 0-.087.169-.203.374-.256.267-.07.356-.215.314-.515-.053-.375.004-.412.56-.367.74.06.865.154.582.438-.328.327-.252.679.146.679.198 0 .36-.08.36-.18 0-.098.244-.18.544-.18.353 0 .586-.11.663-.313.065-.173.205-.402.31-.509.273-.277 1.535-.458 1.535-.22 0 .12.328.16.892.105.49-.047.85-.017.797.067-.051.084-.366.152-.698.152-.388 0-.802.167-1.157.465-.304.256-.552.418-.552.361 0-.057-.162.035-.36.204-.197.169-.358.451-.358.627 0 .187-.134.319-.324.319-.333 0-.754.32-.754.574 0 .08.15.144.331.144.452 0 .961.597.821.962-.129.336-.194.343-.734.082z"
    class="leaf" />
  <path d="M83.392 22.138c-.494-.129-.367-.323.224-.344.343-.012.539.07.539.224 0 .245-.18.273-.763.12z" class="leaf" />
  <path d="M84.694 21.903c0-.099.085-.18.19-.18.104 0 .14.081.079.18-.061.099-.147.18-.19.18-.044 0-.08-.081-.08-.18z" class="leaf"
  />
  <path d="M103.911 21.687c.002-.128.241-.503.532-.833.29-.33.572-.734.624-.899.052-.164.277-.41.5-.55l.855-.525.45-.275-.36.37c-.798.822-1.002 1.164-.894 1.503.081.256.025.348-.216.348-.18 0-.59.247-.91.548-.321.3-.582.442-.58.313z"
    class="leaf" />
  <path d="M108.981 21.684c-.222-.108-.404-.297-.404-.422 0-.176.118-.181.539-.022.296.111.539.306.539.433 0 .271-.129.273-.674.01z"
    class="leaf" />
  <path d="M88.869 21.604c-.217-.087-.332-1.497-.122-1.497.283 0 .616.575.616 1.065 0 .548-.066.605-.494.432z" class="leaf"
  />
  <path d="M114.824 21.601c-.235-.062-.282-.205-.202-.608.09-.45.05-.527-.276-.527-.254 0-.381.113-.381.338 0 .356-.57.606-1.004.44-.34-.131-.136-.419.296-.419.229 0 .348-.123.348-.359 0-.197.09-.359.199-.359.11 0 .439-.202.732-.449.673-.566 1.232-.605 1.093-.076a1.135 1.135 0 0 1-.432.582c-.45.281-.442.72.01.576.418-.133.57.073.434.593-.102.386-.22.425-.817.268z"
    class="leaf" />
  <path d="M77.151 21.185a.18.18 0 0 1 .36 0 .18.18 0 0 1-.18.18.18.18 0 0 1-.18-.18z" class="leaf" />
  <path d="M83.705 21.183c-.15-.244.373-.427.764-.268.289.118.285.14-.045.276-.492.202-.59.201-.719-.008z" class="leaf" />
  <path d="M98.456 20.736c-.057-.149-.025-.27.07-.27.096 0 .175.121.175.27 0 .148-.032.269-.071.269-.039 0-.117-.121-.174-.27z"
    class="leaf" />
  <path d="M86.848 20.228c0-.298.098-.48.26-.48.41 0 .44.24.077.615-.331.34-.337.338-.337-.135z" class="leaf" />
  <path d="M75.147 20.052c.118-.142.443-.205.828-.16.847.1.628.395-.293.395-.58 0-.69-.049-.535-.235z" class="leaf" />
  <path d="M83.835 20.075c-.296-.297-.276-.507.05-.507a.27.27 0 0 0 .27-.269c0-.148.09-.27.2-.27.117 0 .159-.16.1-.384-.07-.268-.043-.328.087-.198s.291.083.529-.154c.41-.41.426-.52.077-.52-.153 0-.223-.107-.167-.254.059-.152-.05-.3-.275-.37-.204-.066-.372-.24-.372-.389 0-.35-.38-.726-.82-.812-.234-.045-.35-.22-.356-.535-.01-.52-.357-.945-.918-1.123a1.84 1.84 0 0 1-.672-.449c-.284-.314-.27-.337.246-.44.765-.153.732-.657-.044-.657-.583 0-1.02-.33-1.258-.95-.064-.169-.198-.307-.297-.307-.098 0-.138-.106-.088-.237.056-.147.286-.209.605-.162.448.066.528.008.63-.458.132-.6-.035-1.477-.282-1.477-.243 0 .03-1.48.338-1.835.217-.25.34-.27.649-.105.24.129.298.232.157.279-.313.104-.28.703.045.828.148.057.27.217.27.356 0 .14-.122.354-.27.477-.334.277-.352.718-.029.718.253 0 .658.727.658 1.18 0 .232-.07.23-.539-.013-.296-.153-.539-.362-.539-.464 0-.102-.08-.135-.18-.074-.315.195-.204.808.148.808.382 0 1.11.774 1.11 1.18 0 .398.336.975.567.975.178 0 .167-.213-.062-1.269a.848.848 0 0 0-.236-.407c-.1-.083.021-.106.273-.052.42.09.453.048.47-.6.016-.583-.048-.715-.39-.8-.467-.118-.939-1.166-.614-1.367.115-.07.141-.322.065-.625-.112-.448-.088-.49.214-.367 1.056.433 1.15.338.71-.714-.195-.467-.37-.623-.694-.623-.45 0-1.38-.784-1.38-1.162 0-.644.729-.333 1.73.739.873.934 1.262.732.693-.36a2.857 2.857 0 0 1-.269-1.113c0-.328-.08-.647-.18-.708-.305-.19-.197-.449.188-.449.202 0 .545.167.763.372l.397.372-.496-.122c-.393-.098-.475-.068-.395.14.056.146.3.37.541.5.242.13.44.334.44.455 0 .12.192.268.429.327.486.122.789.65.373.65a.259.259 0 0 0-.264.251c0 .173.203.246.644.234.619-.018.64-.04.536-.566-.059-.301-.207-.629-.33-.727-.121-.1-.195-.414-.162-.7.032-.285-.027-.572-.132-.637-.105-.065-.243-.377-.306-.693-.133-.663.109-.755.626-.238.185.186.447.381.583.435.173.069.18.102.023.112-.269.017-.313 1.272-.045 1.272.098 0 .18.103.18.23 0 .126.242.321.538.433.616.233.58.716-.06.808-.334.047-.397.188-.444.998-.037.638.036 1.073.225 1.342.316.452.35.827.108 1.21-.29.458-.907-.278-.907-1.084 0-.372-.1-.716-.224-.766-.123-.05-.043-.097.18-.104.282-.01.404-.125.404-.382 0-.326-.075-.354-.674-.245-.37.067-.703.147-.74.179-.174.15-1.009-1.155-.844-1.32.057-.056.103-.008.103.107 0 .116.12.21.27.21.147 0 .268-.062.268-.137 0-.2-.66-.579-.788-.451-.183.182-.122 1.306.07 1.306.099 0 .18.162.18.36 0 .199.12.358.27.358.164 0 .268.168.268.433 0 .343-.073.412-.359.338-.25-.066-.359-.006-.359.196 0 .16-.084.29-.186.29-.126 0-.128-.108-.006-.335.226-.423.088-.562-.556-.562-.458 0-.509.06-.509.604 0 .392.148.754.422 1.032.232.236.478.657.546.935.11.45.182.494.642.393.495-.109.527-.078.673.66.104.526.256.792.476.835.271.052.315-.043.27-.573-.069-.792.119-1.022.284-.348.216.876.623 1.353 1.062 1.243.346-.087.419 0 .583.71.104.446.12.853.038.904-.178.11-.686-.36-.686-.636 0-.106-.126-.193-.28-.193-.16 0-.227.086-.156.2.068.11.012.27-.124.357-.362.229-.517.197-.517-.108 0-.148-.071-.269-.157-.269-.087 0-.206-.242-.265-.539-.099-.493-.656-.798-.656-.359 0 .374-.324.158-.538-.359-.123-.296-.321-.539-.44-.539-.138 0-.188.195-.137.539.06.409.009.539-.211.539-.511 0-.31.506.25.629.298.065.492.197.432.294-.06.096-.343.124-.63.06-.287-.062-.527-.047-.534.035-.007.082-.041.37-.077.64-.047.354.056.586.371.834.24.188.437.432.437.541 0 .11.235.2.522.2.443 0 .507.057.422.379-.087.333-.055.356.261.186.377-.201 1.668-.08 1.668.157 0 .224-.616.391-.685.185-.1-.301-1.059-.225-1.181.094-.17.444-.139.482.327.393.345-.066.459.007.544.345.059.236.027.567-.072.736-.102.175-.181.21-.185.083-.01-.425-.457-.223-.695.314-.166.377-.364.54-.657.54-.23 0-.53.041-.664.093-.134.051-.343-.005-.463-.126z"
    class="leaf" />
  <path d="M116.12 19.667c0-.326.39-1.229.593-1.375.191-.137 1.7-.08 1.85.069.061.06-.065.335-.28.608-.624.794-2.163 1.29-2.163.698z"
    class="leaf" />
  <path d="M87.387 19.604c0-.102-.049-.314-.109-.47-.06-.156-.02-.284.09-.284s.199.121.199.27a.27.27 0 0 0 .27.269c.324 0 .361-.651.044-.78-.123-.049.2-.096.718-.104.828-.012.943.03.943.345 0 .216.12.36.3.36.66 0 .04.205-.775.256-.48.03-1.054.115-1.276.19-.245.08-.404.06-.404-.052z"
    class="leaf" />
  <path d="M74.641 19.137c-.2-.09-.363-.23-.363-.311 0-.273.898-.379 1.411-.166.278.115.615.185.749.155s.27.066.303.215c.047.211-.133.269-.838.269-.494 0-1.062-.073-1.262-.162z"
    class="leaf" />
  <path d="M90.664 18.929a1.019 1.019 0 0 1-.224-.6c0-.195-.082-.406-.183-.468-.1-.062-.14-.18-.09-.262.151-.244-.918-1.263-1.325-1.263-.25 0-.377-.114-.377-.34 0-.187-.122-.386-.27-.443-.148-.057-.268-.207-.266-.334.002-.18.036-.177.154.01.202.317.367.298.64-.076.205-.28.284-.245.877.393.358.385.653.801.656.925.003.123.127.224.276.224.216 0 .248.147.155.726-.086.542-.046.78.16.943.159.125.226.341.158.512-.097.247-.153.256-.34.053z"
    class="leaf" />
  <path d="M99.717 17.862c.055-.403.266-.875.483-1.077.89-.828 2.208-4.58 1.61-4.58-.142 0-.207-.08-.146-.179a.455.455 0 0 1 .352-.18c.26 0 .477 1.762.236 1.91-.071.045-.212.388-.314.763-.1.376-.345.87-.543 1.098-.198.228-.36.477-.36.554 0 .077-.112.251-.25.388-.136.137-.455.648-.707 1.136l-.458.886z"
    class="leaf" />
  <path d="M101.215 18.312a.18.18 0 0 1 .36 0 .18.18 0 0 1-.18.179.18.18 0 0 1-.18-.18z" class="leaf" />
  <path d="M114.09 17.711c-.066-.173.03-.218.34-.159.238.046.432.154.432.242 0 .254-.67.182-.772-.083z" class="leaf" />
  <path d="M88.065 17.668c-.166-.262-.099-1.691.079-1.691.077 0 .141.164.141.365 0 .2.121.41.27.468.342.131.35.424.013.424-.141 0-.285.141-.319.314-.038.192-.11.239-.184.12z"
    class="leaf" />
  <path d="M92.235 17.259c0-.2.082-.413.18-.474.1-.061.18.015.18.169v.415c0 .074-.08.161-.18.194-.098.033-.18-.104-.18-.304z"
    class="leaf" />
  <path d="M112.645 17.192c-.058-.22-.027-.48.068-.575.112-.111.174.031.174.401 0 .672-.095.74-.242.174z" class="leaf" />
  <path d="M117.466 17.234c-.435-.111-.461-.141-.134-.158.23-.013.404-.138.404-.291 0-.316 1.178-.377 1.616-.084.233.156.222.216-.08.446-.37.283-.929.31-1.806.087z"
    class="leaf" />
  <path d="M91.355 16.605c-.006-.597.026-.662.187-.385.135.232.137.449.007.718-.163.336-.187.294-.193-.333z" class="leaf" />
  <path d="M94.239 16.875c0-.247.041-.348.091-.225.05.124.05.326 0 .45-.05.123-.09.022-.09-.225z" class="leaf" />
  <path d="M114.638 16.93c-.49-.128-.37-.412.224-.531.688-.138.69-.347.005-.484-.593-.119-.844-.688-.647-1.471.135-.538.978-.951 1.202-.589.077.125.069.27-.019.325-.087.054-.112.44-.056.857.114.855.447.982 1.228.47.592-.388.558-.68-.133-1.116l-.575-.364.473-.119c.567-.142 1.042-.01 1.554.434.665.577.42 1.322-.607 1.84l-1.137.572c-.593.298-.907.335-1.512.176z"
    class="leaf" />
  <path d="M86.04 16.475c-.9-.303-1.075-.43-1.133-.82-.03-.206-.192-.407-.36-.447-.272-.066-.27-.088.03-.217.25-.109.448-.006.813.421.465.545.92.742.92.398 0-.092-.101-.273-.225-.404-.39-.413-.368-.866.043-.866.205 0 .425.142.489.314.063.173.193.366.287.43.19.127.005 1.423-.198 1.392-.07-.01-.37-.1-.666-.2z"
    class="leaf" />
  <path d="M93.876 15.707c-.148-.41-.342-.628-.56-.628-.225 0-.372-.176-.452-.54-.065-.298-.225-.647-.354-.777-.13-.13-.438-.633-.684-1.12-.247-.487-.62-1.04-.828-1.227-.26-.235-.378-.559-.378-1.033 0-.38-.086-.69-.19-.69-.105 0-.147-.072-.092-.16.217-.351 2.437.699 2.437 1.153 0 .129.1.27.224.314.123.044.161.147.084.23-.077.082-.372.013-.656-.155-.675-.399-.73-.388-.73.144 0 .349.092.449.413.449.227 0 .633.101.9.224.588.271.564.784-.034.718-.226-.025-.378.016-.337.09.04.074.186.398.323.719.331.771.89.8.89.045 0-1 .359-.549.393.494.07 2.139.066 2.379-.036 2.379-.058 0-.208-.283-.333-.629z"
    class="leaf" />
  <path d="M91.76 15.204c-.097-.425-.144-.87-.105-.987.111-.333.401-.255.401.108 0 .177.091.414.203.525.215.216.073 1.127-.176 1.127-.08 0-.225-.348-.323-.773z"
    class="leaf" />
  <path d="M82 15.258a.18.18 0 0 1 .36 0 .18.18 0 0 1-.18.18.18.18 0 0 1-.18-.18z" class="leaf" />
  <path d="M90.44 14.733a.952.952 0 0 0-.24-.586c-.13-.131-.294-.46-.362-.731-.094-.375-.058-.492.15-.492a.27.27 0 0 0 .003-.539c-.148 0-.27-.072-.27-.16 0-.088-.13-.21-.289-.272-.232-.089-.267-.025-.18.323.092.368.054.42-.25.34-.197-.05-.358-.174-.358-.273 0-.098-.176-.133-.39-.077-.429.112-.851-.292-.861-.824-.008-.43.29-.397.405.045.052.198.223.36.38.36.167 0 .287-.15.287-.36 0-.197.08-.359.18-.359a.18.18 0 0 1 .179.18c0 .099.121.18.27.18.164 0 .269-.168.269-.433 0-.334.076-.412.336-.344.368.096.648.568.831 1.403.065.295.212.595.326.665.12.074.21.591.213 1.214.004.92-.044 1.086-.312 1.086-.193 0-.317-.135-.317-.346z"
    class="leaf" />
  <path d="M89.15 14.058c.129-.052.284-.045.343.015.06.06-.046.102-.235.094-.21-.009-.252-.051-.109-.109z" class="leaf" />
  <path d="M110.203 14.008c-.135-.084-.18-.291-.11-.51.11-.345.078-.357-.475-.178a8.111 8.111 0 0 0-.924.359c-.611.31-.478.034.24-.498.392-.29.714-.622.716-.739.002-.117.149-.258.325-.314.186-.059.419-.438.558-.91.131-.444.293-.808.36-.808.065 0 .214.25.33.555.23.61.587.56.587-.08 0-.519.301-.816.717-.707.303.08.308.133.067.71-.144.344-.21.789-.146.988.097.306.24.353.905.3.659-.052.791-.01.791.253 0 .173.07.315.155.315.085 0 .068.324-.037.719-.242.906-.523.935-.446.045.058-.674.058-.674-.668-.7-.608-.02-.73.034-.753.335-.034.447-.248.666-.356.365a.369.369 0 0 0-.325-.225.524.524 0 0 0-.39.225c-.233.365-.876.651-1.121.5z"
    class="leaf" />
  <path d="M78.408 13.721c0-.153.082-.229.183-.167.1.062.136.188.079.28-.154.25-.262.203-.262-.113z" class="leaf" />
  <path d="M103.55 13.204a.276.276 0 0 0-.27-.28c-.148 0-.27.097-.27.215 0 .167-.048.167-.213.003-.164-.165-.116-.316.211-.665.233-.248.482-.45.553-.45.184 0 .307 1.26.133 1.367-.08.05-.145-.036-.145-.19z"
    class="leaf" />
  <path d="M106.568 13.34c.13-.052.285-.045.344.014.06.06-.046.102-.235.095-.21-.01-.252-.052-.109-.109z" class="leaf" />
  <path d="M100.855 13.093c0-.105.081-.14.18-.08.099.062.18.147.18.191 0 .044-.081.08-.18.08-.099 0-.18-.086-.18-.191z" class="leaf"
  />
  <path d="M107.5 13.013a.856.856 0 0 0-.58-.269c-.27 0-.325-.076-.224-.314.258-.614.306-1.122.106-1.122-.11 0-.2.161-.2.359 0 .197-.075.36-.166.36-.092 0-.204.14-.249.313-.045.173-.092.052-.103-.269-.02-.536-.07-.584-.61-.584-.323 0-.782.136-1.019.302-.405.284-.423.283-.312-.008.103-.267.028-.297-.552-.218-.369.05-.53.047-.36-.005.189-.058.294-.248.269-.487-.032-.306.067-.404.453-.449.272-.03.494-.112.494-.18 0-.189 1.082-.627 1.216-.492.064.064.02.274-.1.466-.352.563-.267.892.23.892.248 0 .45-.073.45-.163 0-.09.161-.12.359-.069.276.072.36.006.36-.286 0-.209-.082-.38-.18-.38-.1 0-.18-.162-.18-.36 0-.268-.12-.358-.476-.358h-.475l.565-.54c.311-.298.565-.621.565-.719a.18.18 0 0 1 .18-.178c.099 0 .18.253.18.561 0 .533.028.556.56.45a6.24 6.24 0 0 1 .72-.113c.086 0 .156-.202.156-.449s-.084-.449-.188-.449c-.103 0 .094-.29.439-.645.706-.727.983-.7.868.085-.075.511-.045.538.748.656.526.08.827.215.827.373 0 .137.162.25.36.25.243 0 .358.119.358.373 0 .314-.078.356-.495.264-.786-.172-1.694.683-1.748 1.648-.041.719-.399 1.306-.797 1.306-.106 0-.192-.08-.192-.18 0-.098.08-.18.18-.18.098 0 .179-.12.179-.269 0-.444-.316-.304-.51.225-.113.311-.185.377-.194.18-.008-.173-.127-.315-.264-.315-.138 0-.297-.121-.354-.27-.111-.29-.653-.376-.653-.104 0 .091-.05.293-.11.45-.07.186-.01.283.18.283.159 0 .289.081.289.18 0 .099.202.18.449.18.501 0 .602.261.165.43-.376.143-.358.148-.614-.161z"
    class="leaf" />
  <path d="M109.351 10.241c.08-.006.102-.081.049-.167-.12-.193.49-.921.77-.921.111 0 .203-.121.203-.27 0-.455-.71-.313-.898.18-.18.472-.506.555-1.84.468-.665-.043-.77.061-.574.57.092.24.522.266 2.29.14z"
    class="leaf" />
  <path d="M77.241 12.975c-.617-.086-1.157-.673-1.163-1.263-.002-.222.044-.404.102-.404.32 0 1.495 1.047 1.562 1.392.043.222.069.391.058.377-.011-.015-.263-.061-.559-.102z"
    class="leaf" />
  <path d="M104.088 12.913c0-.104.08-.14.18-.079.098.061.179.147.179.19 0 .044-.08.08-.18.08-.098 0-.18-.086-.18-.19z" class="leaf"
  />
  <path d="M79.138 12.408c-.01-.58-.035-.602-.57-.495-.535.107-.552.092-.434-.381.112-.446.651-1.122.895-1.122.054 0 .098.196.098.437 0 .279.13.478.359.55.343.11.522.809.207.809-.084 0-.24.182-.347.404-.182.378-.196.365-.207-.202z"
    class="leaf" />
  <path d="M94.24 12.258c-.017-.345-.208-.754-.478-1.024-.46-.46-.6-1.004-.256-1.004.248 0 .705.457.705.706 0 .106.177.192.394.192.351 0 .362.024.1.225-.162.123-.326.507-.365.853l-.071.628z"
    class="leaf" />
  <path d="M101.215 12.565a.18.18 0 0 1 .36 0 .18.18 0 0 1-.18.18.18.18 0 0 1-.18-.18z" class="leaf" />
  <path d="M115.051 12.306c-.135-.163-.354-.255-.487-.204-.132.05-.24.027-.24-.053s.343-.256.763-.39c.42-.136.812-.317.872-.402.122-.175 1.529.154 1.675.39.188.305-.637.793-1.475.873-.655.063-.92.012-1.108-.214z"
    class="leaf" />
  <path d="M102.298 11.186c.007-.64.382-1.16.696-.966.189.117.19.225.006.567a3.42 3.42 0 0 1-.467.665c-.202.201-.24.158-.235-.266z"
    class="leaf" />
  <path d="M86.125 10.58c-.244-.188-.572-.343-.728-.346-.484-.006-.534-.222-.134-.57.45-.39.691-.413 1.092-.107.342.261.594 1.129.368 1.268-.085.053-.354-.058-.598-.246z"
    class="leaf" />
  <path d="M114.503 10.694c0-.156.122-.284.27-.284.148 0 .269-.149.269-.33 0-.325.664-.748 1.176-.748.776 0-.22 1.344-1.131 1.528-.462.093-.584.058-.584-.166z"
    class="leaf" />
  <path d="M76.904 10.625c-.049-.079.068-.24.259-.36.21-.131.347-.146.347-.036 0 .1.162.18.36.18.197 0 .359.082.359.18 0 .213-1.196.245-1.325.036z"
    class="leaf" />
  <path d="M79.755 10.589c-.06-.098-.03-.18.069-.18s.23.082.29.18c.061.1.03.18-.068.18-.1 0-.23-.08-.29-.18z" class="leaf"
  />
  <path d="M87.837 10.592c-.063-.102.01-.132.17-.071.31.12.367.248.11.248-.094 0-.22-.08-.28-.177z" class="leaf" />
  <path d="M80.563 10.245c0-.091-.234-.217-.521-.28-.659-.145-1.454-1.09-1.454-1.728 0-.399.065-.47.359-.393.198.052.36.165.36.252 0 .088.09.159.203.159.33 0 1.053.954 1.053 1.392 0 .222.081.404.18.404a.18.18 0 0 1 0 .36c-.099-.001-.18-.075-.18-.166z"
    class="leaf" />
  <path d="M113.426 9.88c0-.415.435-1.063.836-1.246.949-.432 1.012-.193.196.746-.554.64-1.032.87-1.032.5z" class="leaf" />
  <path d="M93.607 9.602c-.056-.148-.025-.27.071-.27s.174.122.174.27c0 .148-.032.27-.07.27-.04 0-.118-.122-.175-.27z" class="leaf"
  />
  <path d="M77.572 9.414c-.135-.354-.009-.478.348-.341.448.172.534.619.118.619-.198 0-.407-.125-.466-.278z" class="leaf" />
  <path d="M103.953 9.451c-.518-.101-.943-.256-.943-.343 0-.159.78-1.263 1.221-1.728.129-.135.28-.478.337-.763.057-.284.208-.517.335-.517.128 0 .26-.073.292-.163.033-.09.222-.19.42-.225.258-.044.374.052.416.343.031.222.153.408.27.412.116.004-.233.232-.776.506-1.208.609-1.478 1.214-.468 1.05.513-.083.647-.046.647.177 0 .241-.692 1.543-.778 1.464-.016-.016-.454-.111-.973-.213z"
    class="leaf" />
  <path d="M89.118 9.063c-.057-.148-.215-.27-.352-.27-.191 0-.229-.217-.162-.942.093-1.02.17-1.215.364-.925.202.301 1.48.259 1.6-.053a.373.373 0 0 0-.147-.43c-.188-.118-.15-.159.154-.16.35-.003.404.09.404.706 0 .44.1.766.266.858.146.082.32.418.385.748l.12.598-.61-.132c-.336-.072-.637-.202-.67-.29-.118-.309-.782-.156-.876.202-.111.425-.331.467-.476.09zM112.3 8.39c-.137-.357-.108-.587.066-.538.09.025.162-.036.162-.135s.197-.18.438-.18.489.081.55.18c.063.102-.088.18-.349.18-.28 0-.46.1-.46.259 0 .344-.298.516-.407.234z"
    class="leaf" />
  <path d="M98.745 8.13c-.123-.047-.224-.24-.224-.429s-.111-.344-.247-.344c-.505 0-.736-.521-.504-1.136.139-.369.15-.59.034-.63-.1-.032-.181-.133-.181-.223 0-.234.775-.085.859.165.102.306.578.253.578-.065 0-.201.117-.243.449-.16.372.094.449.048.449-.266 0-.259-.114-.379-.36-.379-.31 0-.357-.115-.345-.853.014-.785.029-.814.195-.359.2.549.53.634.869.225.348-.42.538-.32.538.28 0 .302-.064.51-.143.46-.322-.199-.573.226-.618 1.045-.064 1.189.327 1.3.487.138.108-.79.183-.903.736-1.12.873-.342.865-.986-.013-1.15-.55-.104-.628-.185-.628-.649 0-.407-.082-.53-.352-.53a.904.904 0 0 0-.579.242c-.19.203-.27.199-.493-.024-.18-.18-.288-.2-.334-.063-.087.26-.397.266-.397.007 0-.107-.162-.401-.36-.652-.52-.662-.458-.947.204-.947.576 0 1.772.616 1.772.912 0 .091.121.165.27.165.15 0 .269-.16.269-.359 0-.197-.087-.36-.192-.36-.106 0-.167-.18-.135-.403.126-.889.42-.327.47.898.028.716.113 1.302.188 1.302.254 0 1.103-.449 1.104-.584 0-.074.356-.135.79-.135.554 0 .822.085.898.284.154.402.142.435-.16.435a.265.265 0 0 0-.27.258c0 .156-.218.28-.553.314l-.553.056-.086 1.482c-.07 1.224-.04 1.481.18 1.481.145 0 .294-.09.33-.2.067-.198 1.4-.437 1.4-.25 0 .053-.074.236-.166.408a5.589 5.589 0 0 0-.29.67c-.077.225-.155.276-.208.135-.049-.13-.4-.224-.845-.224-.745 0-.76-.012-.683-.539.107-.734-.243-.692-.701.085-.267.453-.535.654-.98.738-.337.063-.568.186-.514.274.055.088.002.16-.116.16-.119 0-.305.112-.415.249-.11.137-.3.21-.424.165z"
    class="leaf" />
  <path d="M91.697 7.716a.18.18 0 0 1 .36 0 .18.18 0 0 1-.18.18.18.18 0 0 1-.18-.18z" class="leaf" />
  <path d="M110.387 7.601c-.008-.212.119-.436.28-.498.221-.085.25-.056.115.115-.1.126-.226.35-.28.498-.069.184-.105.147-.115-.115z"
    class="leaf" />
  <path d="M112.783 6.486c.269-.519.91-.896 1.138-.669.19.191-.605 1.089-1.019 1.15-.386.057-.39.044-.119-.481z" class="leaf"
  />
  <path d="M110.8 6.626c-.185-.067-.398-.087-.472-.044-.074.043-.135-.011-.135-.12 0-.13-.218-.158-.628-.08-.412.077-.629.048-.629-.082 0-.11.093-.2.205-.2.113 0 .308-.141.435-.314.346-.474 1.789-.379 2.246.149.19.22.347.459.347.531 0 .19-.973.305-1.369.16z"
    class="leaf" />
  <path d="M107.77 6.507c-.688-.171-.739-.828-.078-1.001.532-.14.448-.702-.094-.63-.242.03-.442-.003-.444-.076-.022-.85 1.095-2.097 1.677-1.873.24.091.207.223-.214.877-.398.62-.494.972-.487 1.802.005.568.006 1.023.003 1.012-.003-.012-.167-.061-.364-.11z"
    class="leaf" />
  <path d="M96.725 5.472c0-.324-.383-.354-.682-.054-.119.118-.216.137-.216.04 0-.096-.283-.326-.628-.513-.346-.186-.629-.406-.629-.49 0-.083-.121-.15-.27-.15-.179 0-.268-.18-.268-.54 0-.42-.08-.538-.364-.538-.26 0-.394-.153-.472-.539-.059-.296-.218-.539-.354-.539-.298 0-.354-1.708-.062-1.888.27-.167.834.606 1.082 1.48.242.86.412 1.045 1.113 1.221.431.109.495.07.508-.3.013-.366.051-.339.286.2.184.424.208.644.075.689-.298.099-.235.753.073.753.148 0 .27-.08.27-.18 0-.098.12-.179.269-.179.15 0 .27-.16.27-.359 0-.198-.082-.36-.18-.36-.333 0-.18-.267.27-.476.356-.165.448-.16.448.03 0 .13.07.264.158.297.245.093.444 1.227.215 1.227-.106 0-.194.162-.194.36 0 .233-.12.359-.342.359-.254 0-.318.092-.248.359.051.197.044.359-.017.359s-.11-.121-.11-.27z"
    class="leaf" />
  <path d="M102.784 5.154c.054-.22.223-.545.375-.722.246-.284.296-.289.434-.043.085.152.106.357.045.455-.177.287.48.205.7-.087.14-.187.28-.215.468-.093.18.116.195.174.045.176-.123.002-.224.133-.224.292 0 .234-.122.267-.626.172-.345-.064-.781-.034-.97.067-.3.16-.332.132-.247-.217z"
    class="leaf" />
  <path d="M108.936 5.044c0-.406.575-1.465.886-1.631.522-.28.91-.225.905.128-.012.65-1.79 2.143-1.79 1.504z" class="leaf" />
  <path d="M111.118 5.043c-.19-.12-.152-.217.175-.446.471-.33.841-.366 1.234-.117.23.145.218.208-.09.44-.4.303-.953.355-1.32.123z"
    class="leaf" />
  <path d="M105.524 4.114c0-.105-.094-.132-.21-.06-.144.089-.171.029-.087-.19.103-.268.047-.306-.342-.232-.602.115-.322-.162.325-.322.46-.114.494-.083.494.436 0 .307-.04.558-.09.558-.05 0-.09-.085-.09-.19z"
    class="leaf" />
  <path d="M89.024 3.979c-.011-.13-.162-.213-.335-.184-.173.028-.415-.012-.539-.09-.229-.143-.317-1.582-.11-1.79.195-.194 1.502.961 1.502 1.327 0 .19-.075.344-.166.344-.092 0-.204.141-.249.314-.045.173-.091.208-.103.079z"
    class="leaf" />
  <path d="M85.053 3.622c0-.217-.081-.395-.18-.395-.099 0-.18-.121-.18-.27 0-.426.282-.314.519.207.151.332.16.534.029.665s-.188.068-.188-.207z"
    class="leaf" />
  <path d="M106.366 3.829c-.251-.251-.112-1.095.232-1.407.33-.3.364-.3.472-.018.24.626-.336 1.793-.704 1.425z" class="leaf"
  />
  <path d="M91.158 1.945c0-.184-.071-.334-.158-.334-.208 0-.375-.88-.19-.995.206-.127 1.018.657 1.147 1.107.088.307.02.4-.345.47-.354.067-.454.013-.454-.248z"
    class="leaf" />
  <path d="M95.258 1.678a1.23 1.23 0 0 1-.602-.802c-.15-.687-.005-.847.421-.461.437.395.688.376.802-.061.112-.428.455-.473.605-.08.108.28-.438 1.712-.64 1.677-.058-.01-.323-.133-.587-.273z"
    class="leaf" />
  <path d="M101.338 1.386c.147-.752.6-1.379.999-1.386.513-.01.389.845-.21 1.445-.693.692-.933.674-.79-.059z" class="leaf" />
  </g>
</svg>